PathFileType	4	(X/Y/Z)	/Users/itak/Documents/Research/Walk-IL/dataset/trc/00401_00012.trc
DataRate	CameraRate	NumFrames	NumMarkers	Units	OrigDataRate	OrigDataStartFrame	OrigNumFrames
100.000000	100.000000	4	53	mm	100.000000	272	726
Frame#	Time	RPSI			LPSI			L3			STRN			T10			C7			CLAV			RBAK			LBAK			LSHO			LUPA			LAEL			LAOL			LWTS			LWPS			LFRA			LIFD			LHPS			LHTS			RSHO			RUPA			RAEL			RAOL			RWTS			RWPS			RFRA			RIFD			RHTS			RHPS			RBHD			LFHD			RFHD			LBHD			LHIP			RHIP			RASI			LASI			LKNE			LTHI			LANK			LTIP			LTOE			LMT1			LMT5			LHEE			RKNE			RTHI			RANK			RTIP			RTOE			RMT1			RMT5			RHEE			
		X1	Y1	Z1	X2	Y2	Z2	X3	Y3	Z3	X4	Y4	Z4	X5	Y5	Z5	X6	Y6	Z6	X7	Y7	Z7	X8	Y8	Z8	X9	Y9	Z9	X10	Y10	Z10	X11	Y11	Z11	X12	Y12	Z12	X13	Y13	Z13	X14	Y14	Z14	X15	Y15	Z15	X16	Y16	Z16	X17	Y17	Z17	X18	Y18	Z18	X19	Y19	Z19	X20	Y20	Z20	X21	Y21	Z21	X22	Y22	Z22	X23	Y23	Z23	X24	Y24	Z24	X25	Y25	Z25	X26	Y26	Z26	X27	Y27	Z27	X28	Y28	Z28	X29	Y29	Z29	X30	Y30	Z30	X31	Y31	Z31	X32	Y32	Z32	X33	Y33	Z33	X34	Y34	Z34	X35	Y35	Z35	X36	Y36	Z36	X37	Y37	Z37	X38	Y38	Z38	X39	Y39	Z39	X40	Y40	Z40	X41	Y41	Z41	X42	Y42	Z42	X43	Y43	Z43	X44	Y44	Z44	X45	Y45	Z45	X46	Y46	Z46	X47	Y47	Z47	X48	Y48	Z48	X49	Y49	Z49	X50	Y50	Z50	X51	Y51	Z51	X52	Y52	Z52	X53	Y53	Z53	

273	2.72	1249.013061523438	961.7333374023438	100.5543746948242	1121.678588867188	945.3369750976562	136.2742309570312	1178.6103515625	1027.660278320312	121.789909362793	1119.184448242188	1192.351196289062	-102.5995712280273	1171.67333984375	1130.319580078125	135.2495727539062	1139.0185546875	1379.88525390625	114.6360168457031	1120.85888671875	1309.294189453125	-43.53472137451172	1219.2880859375	1238.450317382812	139.0081787109375	1045.421264648438	1334.66943359375	148.6193542480469	978.0569458007812	1354.392944335938	74.83451080322266	928.0701293945312	1232.04296875	115.9336776733398	908.9132690429688	1037.94287109375	109.8323974609375	986.8380737304688	1016.582458496094	137.7924499511719	887.7280883789062	861.1849975585938	-33.81056213378906	851.7734375	832.8233642578125	35.13352966308594	884.61572265625	942.4495239257812	82.69931030273438	853.5292358398438	690.3840942382812	-82.89197540283203	835.0031127929688	760.2915649414062	-11.63995742797852	847.77294921875	774.7313842773438	-66.22296905517578	1284.403442382812	1374.123779296875	32.66114044189453	1345.202392578125	1314.509521484375	40.36147689819336	1405.48095703125	1057.89892578125	46.31798553466797	1313.627197265625	1042.588500976562	59.87909698486328	1414.699462890625	834.6089477539062	-65.21066284179688	1471.638549804688	834.9267578125	-17.88672065734863	1432.215209960938	996.8902587890625	26.57484436035156	1432.83203125	661.183349609375	-40.22501373291016	1444.171752929688	730.532958984375	-67.40903472900391	1478.949829101562	746.5543823242188	-10.19286823272705	1203.622802734375	1577.52001953125	51.92298889160156	1013.984008789062	1570.330078125	-14.19010448455811	1127.087280273438	1592.862060546875	-56.65692520141602	1064.126342773438	1543.4345703125	124.8236389160156	991.7689819335938	926.8726196289062	78.40421295166016	1339.404663085938	957.4295654296875	8.316442489624023	1250.318969726562	958.8011474609375	-123.2826461791992	1001.149658203125	927.1901245117188	-43.69515991210938	1094.857788085938	437.5239562988281	-13.01725959777832	1053.853149414062	574.8672485351562	8.254400253295898	1236.592895507812	31.94483947753906	68.79006958007812	1161.376586914062	209.5944671630859	24.23775100708008	1260.480102539062	28.98539352416992	-159.5164031982422	1304.249633789062	30.46206474304199	-85.79986572265625	1202.236328125	29.54970169067383	-59.86030197143555	1296.068237304688	29.24978256225586	91.54759979248047	1310.620849609375	494.5185546875	-202.4119415283203	1325.329467773438	746.1699829101562	-145.7488861083984	1416.277709960938	117.8964385986328	-19.19083213806152	1328.989013671875	369.8558044433594	-178.3577117919922	1342.612182617188	36.89548873901367	-165.5550994873047	1319.03466796875	54.9700927734375	-94.355224609375	1418.314453125	72.97864532470703	-92.25464630126953	1374.6220703125	120.9556884765625	61.28568649291992	
274	2.73	1249.879272460938	962.4521484375	89.60280609130859	1123.451049804688	945.7723388671875	128.1532135009766	1179.648315429688	1028.308227539062	112.6305084228516	1114.798217773438	1192.512939453125	-111.0576095581055	1172.56640625	1130.966918945312	126.0832672119141	1138.716552734375	1380.356567382812	105.4321517944336	1117.727661132812	1309.518188476562	-52.22514724731445	1219.112426757812	1239.009765625	128.9776306152344	1045.708984375	1335.363159179688	141.1241455078125	977.039794921875	1355.037841796875	68.45494079589844	927.3641967773438	1232.794921875	110.2660217285156	907.4317016601562	1039.156005859375	103.2413635253906	985.6493530273438	1016.840209960938	130.0164489746094	882.2639770507812	868.6016235351562	-46.19881057739258	846.2099609375	838.2281494140625	21.85050392150879	881.6730346679688	945.3867797851562	73.37860107421875	844.4531860351562	700.6489868164062	-101.8858032226562	827.7118530273438	768.6953735351562	-27.48878479003906	840.406982421875	784.295166015625	-81.72713470458984	1282.679565429688	1374.19091796875	21.16772270202637	1343.370849609375	1314.781127929688	28.48336219787598	1403.054443359375	1058.358032226562	38.09990692138672	1311.289428710938	1043.456298828125	52.69492340087891	1410.759643554688	832.2747192382812	-67.99568176269531	1468.3642578125	833.8289794921875	-21.54988479614258	1429.554565429688	997.0071411132812	19.3126106262207	1427.923217773438	659.1102294921875	-36.64463424682617	1439.35693359375	727.625	-66.71697998046875	1475.166015625	745.5497436523438	-10.65506172180176	1202.27880859375	1577.75341796875	41.25269317626953	1011.870544433594	1570.518676757812	-22.6373462677002	1124.496459960938	1592.699584960938	-66.52361297607422	1063.55224609375	1544.155517578125	115.8759613037109	991.8851928710938	926.86328125	73.70314788818359	1336.4599609375	957.0851440429688	-4.462238311767578	1245.574951171875	959.5579833984375	-134.2256622314453	998.543212890625	926.8858642578125	-48.93219757080078	1094.08447265625	437.3106689453125	-14.16962337493896	1052.91796875	574.992431640625	6.013212203979492	1236.626953125	32.04615783691406	68.79561614990234	1161.101806640625	209.6179962158203	23.92611312866211	1260.556396484375	28.93604469299316	-159.6517028808594	1304.203979492188	30.57985496520996	-85.76144409179688	1202.349365234375	29.44453620910645	-59.84682464599609	1296.129150390625	29.51568984985352	91.51276397705078	1302.248046875	496.4783325195312	-217.8922424316406	1319.827880859375	747.8856201171875	-159.8349609375	1408.898559570312	110.0324401855469	-56.43316650390625	1320.177368164062	370.2371520996094	-199.4554138183594	1330.464599609375	38.771484375	-205.3527221679688	1308.776000976562	52.11338806152344	-132.375	1408.330444335938	69.57541656494141	-132.0876312255859	1369.743774414062	108.6572570800781	25.36013031005859	
275	2.74	1250.625854492188	962.9364013671875	78.64064025878906	1125.157348632812	945.9906616210938	119.9515762329102	1180.658935546875	1028.84765625	103.4561157226562	1110.46435546875	1192.388793945312	-119.462890625	1173.430053710938	1131.518432617188	116.9349746704102	1138.273803710938	1380.658935546875	96.14688110351562	1114.566284179688	1309.454833984375	-60.90771102905273	1218.796875	1239.432983398438	118.9662094116211	1045.869995117188	1335.899169921875	133.5054168701172	975.9172973632812	1355.353637695312	61.90663528442383	926.598388671875	1233.296508789062	104.5391540527344	905.967041015625	1040.15625	96.78759002685547	984.4888305664062	1016.86376953125	122.4091491699219	876.9050903320312	876.057373046875	-58.07401657104492	840.6757202148438	843.7152099609375	8.988574981689453	878.8704223632812	948.2452392578125	64.36575317382812	835.6568603515625	711.2872314453125	-120.2367782592773	820.5877685546875	777.2755126953125	-42.74387741088867	833.208251953125	794.0350952148438	-96.63773345947266	1280.818969726562	1374.074340820312	9.6533203125	1341.408081054688	1314.87939453125	16.63055229187012	1400.546997070312	1058.701293945312	29.92469024658203	1308.877685546875	1044.193115234375	45.51299667358398	1406.781494140625	830.0780029296875	-71.00909423828125	1465.059936523438	832.794921875	-25.50572204589844	1426.824951171875	997.0343627929688	12.01940441131592	1423.32177734375	657.328369140625	-33.81122970581055	1434.685180664062	725.0933837890625	-66.5615234375	1471.499633789062	744.737548828125	-11.69645214080811	1200.867309570312	1577.734130859375	30.56192398071289	1009.723937988281	1570.497436523438	-31.02032089233398	1121.8203125	1592.362060546875	-76.35270690917969	1062.952880859375	1544.60791015625	106.9273147583008	992.2157592773438	926.6036987304688	68.91724395751953	1333.381103515625	956.4589233398438	-17.43394660949707	1240.731079101562	960.043701171875	-145.07080078125	995.958251953125	926.481201171875	-54.12495422363281	1093.37158203125	437.0557250976562	-15.64531326293945	1052.025268554688	575.0338745117188	3.593330144882202	1236.654052734375	32.15599060058594	68.79271697998047	1160.664672851562	209.62255859375	23.3549976348877	1260.641479492188	28.86858367919922	-159.8240203857422	1304.163696289062	30.65671348571777	-85.71240234375	1202.445678710938	29.35858154296875	-59.83536911010742	1296.159545898438	29.68322563171387	91.44486236572266	1293.916870117188	497.970458984375	-232.7330169677734	1314.152587890625	749.141845703125	-173.6516265869141	1399.802490234375	102.3783111572266	-93.76333618164062	1310.973022460938	370.4575500488281	-220.0452117919922	1316.244995117188	41.00358963012695	-244.2440643310547	1296.62646484375	49.79426574707031	-169.8140258789062	1396.409057617188	66.42831420898438	-171.5837707519531	1363.180053710938	96.70150756835938	-10.92789745330811	
276	2.75	1251.253784179688	963.1456909179688	67.65802001953125	1126.79248046875	945.971923828125	111.6621322631836	1181.652954101562	1029.279907226562	94.23567199707031	1106.191162109375	1191.976196289062	-127.8098373413086	1174.257202148438	1131.99169921875	107.8275604248047	1137.682373046875	1380.789916992188	86.77915191650391	1111.380859375	1309.112670898438	-69.58898162841797	1218.349243164062	1239.726684570312	108.9792175292969	1045.883911132812	1336.267944335938	125.7566223144531	974.6741943359375	1355.359497070312	55.18780517578125	925.7575073242188	1233.541381835938	98.73505401611328	904.53369140625	1040.917114257812	90.40837097167969	983.3427124023438	1016.643493652344	114.9340667724609	871.6882934570312	883.4846801757812	-69.44125366210938	835.1987915039062	849.2421875	-3.446524143218994	876.2244262695312	950.9874877929688	55.63655853271484	827.1033325195312	722.18505859375	-137.8878631591797	813.6472778320312	785.9492797851562	-57.38047790527344	826.1929321289062	803.8687133789062	-110.9300231933594	1278.823852539062	1373.781982421875	-1.874095320701599	1339.317504882812	1314.813842773438	4.813222885131836	1397.96826171875	1058.928955078125	21.77153778076172	1306.414306640625	1044.832763671875	38.34917449951172	1402.7763671875	828.0224609375	-74.30968475341797	1461.719848632812	831.79931640625	-29.76655769348145	1424.0361328125	996.9705200195312	4.675938606262207	1419.023315429688	655.72900390625	-31.81845092773438	1430.17724609375	722.9183959960938	-67.02285003662109	1467.96484375	744.0836791992188	-13.37086009979248	1199.385009765625	1577.462890625	19.85379791259766	1007.540649414062	1570.264404296875	-39.34714889526367	1119.060180664062	1591.853515625	-86.14612579345703	1062.320190429688	1544.778930664062	97.97580718994141	992.6837158203125	926.1156005859375	64.00977325439453	1330.209716796875	955.6422729492188	-30.51359558105469	1235.769897460938	960.2353515625	-155.7947082519531	993.3511352539062	925.9766235351562	-59.28023147583008	1092.743408203125	436.7171936035156	-17.49814605712891	1051.146118164062	574.9752197265625	0.9327480792999268	1236.673095703125	32.27574157714844	68.77629852294922	1160.1591796875	209.5826110839844	22.51760101318359	1260.720458984375	28.77816581726074	-160.02197265625	1304.14111328125	30.6833553314209	-85.67411041259766	1202.484252929688	29.30956268310547	-59.82623291015625	1296.201782226562	29.80076026916504	91.35400390625	1285.690307617188	498.9522094726562	-246.9908905029297	1308.32958984375	749.921630859375	-187.1849975585938	1388.9521484375	95.07711791992188	-131.0250244140625	1301.394653320312	370.5518493652344	-240.1427307128906	1299.947387695312	43.59687042236328	-282.0176696777344	1282.599731445312	48.14868545532227	-206.4592437744141	1382.52001953125	63.59067916870117	-210.5584869384766	1354.86376953125	85.30162048339844	-47.35964202880859	
